<?xml version="1.0" encoding="UTF-8"?>
<svg id="_レイヤー_1" data-name="レイヤー_1" xmlns="http://www.w3.org/2000/svg" version="1.1" viewBox="0 0 300 110">
  <!-- Generator: Adobe Illustrator 29.6.1, SVG Export Plug-In . SVG Version: 2.1.1 Build 9)  -->
  <g>
    <path d="M203.22,53.06c-1.06-.96-2.2-1.91-3.41-2.82-1.2-.91-2.25-1.6-3.08-2.05-1.18-.71-2.23-.52-2.96.52l-.02.03c-.18.31-.52.8-1.04,1.51-.5.69-1.01,1.41-1.5,2.13-.48.71-.86,1.26-1.12,1.65-.36.56-.95.84-1.81.84h-9.13c5.09-4.09,9.61-8.62,13.44-13.47.56-.63.95-.85,1.18-.92.24-.07.72-.13,1.69.02.55.06,1.31-.09,1.83-1.13l.02-.04c.16-.39.22-.8.18-1.24-.06-.66-.41-.96-.68-1.1-.72-.39-1.86-.93-3.51-1.66-1.61-.71-3.23-1.41-4.87-2.12-1.65-.71-2.95-1.2-3.85-1.46-.25-.08-.55-.12-.92-.12h-.11l-.1.05c-.37.18-.61.5-.72.92-.19.33-.37.69-.52,1.05-.15.37-.32.7-.5,1l-.02.04c-.99,2.03-2.12,3.96-3.38,5.73-.76-.79-1.64-1.63-2.62-2.5-1.11-.98-2.09-1.75-2.92-2.28,1.87-.09,3.58-.4,5.11-.91,2.07-.69,3.08-1.55,3.08-2.62,0-.13-.02-.69-.1-2.24-.06-1.21-.12-2.52-.17-3.93h23.8c.72,0,1.25-.39,1.47-1.11.21-.67.04-1.37-.5-2.06-.54-.74-1.37-1.6-2.53-2.63-1.14-1.01-2.37-1.96-3.67-2.83-1.31-.88-2.44-1.53-3.34-1.92-1.49-.69-2.4-.04-2.9.63-.19.26-.56.76-1.11,1.5l-1.64,2.22c-.53.72-.95,1.23-1.26,1.54l-.05.06c-.34.48-.57.61-.68.64-.16.05-.51.12-1.25.12h-6.46v-2.8c0-.78.15-1.09.24-1.2.06-.08.29-.28,1.06-.35h.03c1.01-.17,1.56-.78,1.56-1.73s-.46-1.56-1.31-1.81h-.03c-.85-.2-2.15-.4-3.86-.6-1.7-.19-3.39-.39-5.06-.58-1.64-.19-2.93-.29-3.84-.29-.56-.15-1.08.07-1.45.62-.2.33-.34.88.1,1.65.11.18.26.57.37,1.41.09.72.14,1.81.14,3.26v2.41h-16.59v-2.8c0-.78.15-1.09.24-1.2.06-.08.29-.28,1.06-.35h.03c1.01-.17,1.56-.78,1.56-1.73s-.46-1.56-1.31-1.81h-.03c-.85-.2-2.15-.4-3.86-.6-1.7-.19-3.39-.39-5.06-.58-1.66-.19-2.96-.29-3.87-.29-.46-.07-.89.07-1.25.43l-.06.07c-.25.38-.46.99-.01,1.77.11.18.26.57.37,1.41.09.71.14,1.81.14,3.26v2.41h-9.15c-4.52-.13-8.43-.39-11.62-.77l-.71-.09,1.46,5.23.41-.05c1.64-.19,3.29-.32,4.88-.38,1.62-.06,3.49-.1,5.57-.1h9.05c-.06,1.49-.12,2.91-.17,4.27-.06,1.5-.1,2.46-.1,2.87,0,.97.39,2.6,2.99,2.6,2.36,0,4.5-.32,6.37-.94,2.07-.69,3.08-1.55,3.08-2.62v-6.17h16.59v7.14s0,.04,0,.06c-.1-.77-.63-1.29-1.52-1.48-.86-.26-2.19-.52-3.96-.78-1.79-.26-3.58-.49-5.32-.68-1.78-.19-3.14-.29-4.05-.29s-1.3.46-1.49.84l-.03.06c-.17.51-.13,1.02.13,1.55.16.27.38.87.57,2.15.16,1.07.24,2.51.24,4.27v2.61h-13.68c-4.59-.13-8.5-.38-11.62-.77l-.71-.09,1.46,5.23.41-.05c1.64-.19,3.29-.32,4.88-.38,1.62-.06,3.5-.1,5.59-.1,1.55-.06,3.12-.1,4.66-.1s3.13.03,4.77.1h4.24v9.65h-23.32c-4.59-.13-8.5-.42-11.61-.86l-.72-.1,1.46,5.35.41-.05c1.65-.19,3.29-.32,4.88-.38,1.62-.06,3.49-.1,5.57-.1h28.97c-3.84,2.5-7.91,4.85-12.13,7-1.48-.55-2.92-1.06-4.3-1.52-1.44-.48-2.5-.82-3.13-1.01-.55-.18-1.07-.07-1.45.31l-.07.07-.04.09c-.16.41-.2.83-.12,1.24l.02.08c.08.19.2.66.36,1.77.11.83.2,1.83.27,2.95-3.29,1.42-6.6,2.73-9.84,3.91-3.34,1.21-6.65,2.31-9.86,3.27l-.17.05-.1.15c-.34.54-.72,1.58.6,2.57l.17.13.21-.04c3.41-.71,6.8-1.47,10.09-2.27,3.08-.75,6.14-1.58,9.1-2.47v1.47c0,6-.1,11.02-.29,14.92-.19,3.91-.29,6.32-.29,7.16,0,1.86,1.06,2.89,2.99,2.89,1.5,0,3.06-.15,4.62-.44,1.58-.3,2.94-.73,4.04-1.3,1.23-.63,1.85-1.41,1.85-2.31v-.68h28.16v1.16c0,1.8,1.06,2.79,2.99,2.79,1.5,0,3.07-.15,4.67-.44,1.6-.3,2.99-.71,4.12-1.24,1.27-.6,1.91-1.36,1.91-2.27,0-.33-.05-1.48-.15-3.4-.1-1.99-.21-4.47-.34-7.37-.13-2.94-.19-6.17-.19-9.57,0-1.56.39-2.63,1.15-3.18l.06-.05c.21-.21.54-.4.97-.56,1.47-.49,1.77-1.46,1.77-2.19,0-1-.48-1.81-1.37-2.33-.8-.53-1.9-1.1-3.35-1.73-1.49-.64-2.86-1.22-4.2-1.79-1.38-.58-2.54-1-3.46-1.27-1.65-.61-2.39.22-2.69.79-.26.39-.58.93-.97,1.65-.38.69-.67,1.21-.87,1.54-.15.27-.44.62-1.22.62h-20.89c5.93-2.71,11.5-5.79,16.6-9.16h30.61c.42,0,1.17-.16,1.52-1.2.25-.74.08-1.46-.48-2.11-.53-.59-1.34-1.38-2.4-2.35ZM179.42,83.89v8.97h-28.16v-8.97h28.16ZM151.26,80.03v-8.3h28.16v8.3h-28.16ZM170.12,49.74c-1.55,1.47-3.23,2.92-4.98,4.32v-8.85h9.36c-1.39,1.56-2.86,3.08-4.38,4.52ZM168.55,33.45c.08.76.45,1.7,1.72,2.07-.14.13-.28.28-.4.47l-.02.04c-.25.45-.72,1.2-1.39,2.25-.68,1.06-1.18,1.85-1.5,2.37-.3.49-.82.73-1.61.73h-.2v-4.15c0-.96.41-1.4,1.38-1.45h.04c1.18-.16,1.87-.86,1.96-1.97.02-.12.03-.24.03-.35Z" fill="#065f46"/>
    <path d="M298.37,35.75c-.83-.58-1.91-1.26-3.19-2.03-1.22-.73-2.49-1.48-3.77-2.22-1.24-.72-2.32-1.28-3.25-1.67-1.72-.67-2.73.09-3.27.85-.45.64-.88,1.3-1.27,1.96-.37.62-.71,1.12-1.02,1.48l-.05.07c-.35.63-.6.8-.72.85-.18.07-.56.16-1.36.16h-21.28c.12-1.89.25-3.83.4-5.75.16-2.13.27-4.35.34-6.59,0-.87.18-1.47.51-1.76.37-.32.92-.5,1.68-.56,1.12-.16,1.79-.87,1.95-2.05v-.06c0-.43-.07-.88-.21-1.35-.13-.41-.46-.93-1.33-1.05-.72-.19-1.77-.44-3.13-.72-1.39-.29-2.92-.58-4.55-.87-1.63-.29-3.16-.53-4.55-.73-1.38-.19-2.44-.32-3.16-.39h-.04c-.91,0-1.34.41-1.55.78-.25.29-.46.79-.15,1.61.49,1.29.77,3.67.84,7.07.06,3.36,0,7.54-.18,12.43h-15.72c-4.59-.13-8.5-.39-11.62-.77l-.71-.09,1.45,5.33.41-.05c1.64-.19,3.28-.32,4.88-.38,1.62-.06,3.5-.1,5.57-.1h15.5c-.39,7.46-1.14,14.34-2.23,20.46-1.11,6.23-2.87,11.84-5.21,16.7-2.34,4.84-5.53,9.1-9.48,12.68-3.96,3.58-9.05,6.65-15.14,9.12l-.15.06-.08.14c-.58.99-.31,1.93.74,2.58l.18.11.2-.05c7.46-1.99,13.89-4.56,19.11-7.62,5.24-3.07,9.62-7.03,13.02-11.75,3.39-4.71,6.09-10.64,8.03-17.6,1.9-6.83,3.28-15.18,4.12-24.81h23.09c-.07,8.49-.31,15.76-.72,21.62-.42,5.97-1.01,10.81-1.77,14.4-.75,3.55-1.76,6.19-3,7.87-1.21,1.64-2.65,2.52-4.38,2.7-1.32.13-2.97.16-4.9.09-1.94-.06-3.92-.21-5.89-.43-1.99-.22-3.82-.43-5.49-.63l-.15-.02-.13.07c-.53.29-.86.66-.98,1.1-.12.46-.02.96.32,1.5l.1.17.19.05c3.36.82,6.02,1.7,7.91,2.62,1.82.88,3.11,2.09,3.83,3.58.74,1.53,1.11,3.73,1.11,6.54v.53l.53-.06c3.68-.39,6.98-1.11,9.81-2.15,2.85-1.05,5.37-2.76,7.47-5.09,2.09-2.32,3.83-5.54,5.16-9.57,1.32-4,2.32-9.19,2.96-15.43.64-6.23.97-13.97.97-23,0-1.22.1-2.1.3-2.62.19-.49.57-.93,1.13-1.32l.03-.02c.35-.29.8-.56,1.32-.79,1.26-.52,1.96-1.35,2.08-2.47.11-1.11-.38-2.02-1.43-2.63Z" fill="#065f46"/>
  </g>
  <g>
    <path d="M93.98,22.25L43.83.48c-1.39-.6-2.92-.64-4.31-.1-1.41.54-2.52,1.61-3.12,3L14.44,54.07H3.81c-2.1,0-3.81,1.71-3.81,3.81v33.05c0,2.1,1.71,3.81,3.81,3.81h15.92l34.51,14.95c1.62.69,3.24.24,3.9-1.23,0,0,.88-2.03,2.36-5.43.78.2,1.56.3,2.32.3,3.06,0,5.74-1.55,6.69-4.13.42-1.14.47-2.15.29-3.02,1.88-.1,3.73-.93,4.73-3.38.56-1.39.57-2.76.02-3.97-.02-.03-.03-.07-.05-.1,1.86-.52,3.2-1.81,3.84-3.74.54-1.63.54-3.09.01-4.34.07-.03.14-.06.21-.09,1.56-.73,2.83-2.32,3.57-4.47,1.33-3.85-1.37-6.86-4.45-8.03-.38-.15-.99-.36-1.75-.63,7.79-17.97,15.25-35.14,15.47-35.65.47-1.06-.01-2.11-.9-2.5L40.71,7.67c-.53-.23-.93-.65-1.14-1.2-.21-.55-.2-1.15.03-1.69.23-.53.65-.93,1.17-1.13.53-.21,1.13-.19,1.67.04l50.15,21.77c.88.38,1.91-.02,2.3-.91.38-.88-.02-1.91-.91-2.3ZM2.98,90.93v-33.05c0-.46.37-.83.83-.83h17c.46,0,.83.37.83.83v33.05c0,.46-.37.83-.83.83H3.81c-.46,0-.83-.37-.83-.83ZM79.31,75.12c-.47,1.36-1.21,2.36-2.02,2.74-.53.25-1.14.26-1.85.02-.14-.05-.23-.08-.27-.09-.05-.02-.11-.02-.17-.03l-7.15-2.45c-.78-.27-1.62.15-1.89.93s.15,1.62.93,1.89l7.44,2.55c.05.02.1.03.15.04.27.13.78.42,1.05.97.3.59.29,1.39-.04,2.37-.39,1.17-1.15,1.78-2.4,1.92-1.06.12-2.05-.16-2.15-.18l-6.08-2.08c-.78-.27-1.62.15-1.89.93s.15,1.62.93,1.89l6.09,2.09s0,0,0,0c.67.23,1.49.74,1.81,1.45.21.46.19.99-.07,1.62-.29.72-.97,2.39-5.02,1.03,0,0,0,0,0,0l-4.46-1.53c-.78-.27-1.62.15-1.89.93-.27.78.15,1.62.93,1.89l4.43,1.52c.64.26,1.6.95.97,2.65-.68,1.85-3.33,2.68-5.91,1.86-1.61-.52-24.63-8.4-29.22-9.98-1.46-.5-3.33-.83-4.75-.83h-2.2v-28.29h1.46c2.29,0,4.48-.67,5.98-1.84,1.95-1.51,5.02-3.46,7.26-4.88,1.96-1.25,2.92-1.86,3.34-2.23.88-.78,2.72-1.57,4.19-1.79,6.89-1.05,22.56-3.32,23.77-3.35h.01c.45,0,.76.12,1.02.4.56.6.74,1.78.68,2.62-.08,1.02-.84,6.17-8.2,7.51-1.75.32-3.16.57-4.3.76-2.93.51-4.26.74-5.36,1.24-.8.36-1.28,1.16-1.24,2.04.04.88.61,1.64,1.45,1.93,1.42.49,3.8,1.29,6.49,2.2,6.04,2.04,13.55,4.58,15.45,5.31,2.72,1.03,3.17,2.89,2.69,4.28ZM41.4,11.77l-18.58,42.88c-.59-.37-1.27-.58-2.01-.58h-.22L39.31,10.87s0,0,0,0l2.08.9Z" fill="#065f46"/>
    <circle cx="16.38" cy="86.64" r="2.82" fill="#065f46"/>
  </g>
</svg>