<?xml version="1.0" encoding="UTF-8"?>
<svg id="_レイヤー_1" data-name="レイヤー_1" xmlns="http://www.w3.org/2000/svg" version="1.1" viewBox="0 0 300 300">
  <!-- Generator: Adobe Illustrator 30.0.0, SVG Export Plug-In . SVG Version: 2.1.1 Build 123)  -->
  <path d="M276.87,60.58L139.94,1.13c-3.78-1.64-7.97-1.74-11.78-.27-3.85,1.49-6.87,4.39-8.52,8.19l-59.96,138.41h-29.01c-5.74,0-10.4,4.67-10.4,10.4v90.23c0,5.74,4.67,10.4,10.4,10.4h43.47l94.23,40.82c4.43,1.88,8.84.64,10.64-3.36,0,0,2.41-5.55,6.43-14.83,2.14.54,4.27.81,6.34.81,8.35,0,15.67-4.23,18.26-11.28,1.15-3.12,1.29-5.87.79-8.24,5.13-.28,10.19-2.53,12.9-9.22,1.53-3.79,1.56-7.53.07-10.83-.04-.09-.09-.19-.13-.28,5.07-1.41,8.74-4.94,10.48-10.21,1.47-4.44,1.48-8.42.04-11.86.19-.08.39-.17.58-.25,4.26-2,7.72-6.33,9.75-12.19,3.63-10.51-3.75-18.74-12.14-21.93-1.05-.4-2.69-.99-4.77-1.72,21.28-49.06,41.63-95.96,42.24-97.33,1.28-2.9-.03-5.77-2.45-6.82L131.42,20.75c-1.43-.62-2.54-1.79-3.12-3.28-.58-1.51-.55-3.15.09-4.62.62-1.43,1.76-2.53,3.21-3.09,1.46-.56,3.08-.52,4.55.12l136.93,59.45c2.42,1.05,5.22-.06,6.27-2.48,1.05-2.42-.06-5.23-2.48-6.27ZM28.39,248.09v-90.23c0-1.25,1.02-2.27,2.27-2.27h46.43c1.25,0,2.27,1.02,2.27,2.27v90.23c0,1.25-1.02,2.27-2.27,2.27H30.66c-1.25,0-2.27-1.02-2.27-2.27ZM236.8,204.93c-1.28,3.72-3.29,6.45-5.51,7.49-1.45.68-3.11.7-5.05.05-.37-.14-.63-.23-.74-.26-.15-.04-.3-.06-.45-.09l-19.52-6.68c-2.12-.73-4.44.41-5.16,2.53s.41,4.44,2.53,5.16l20.32,6.96c.14.05.28.07.42.11.73.34,2.12,1.16,2.88,2.65.82,1.62.78,3.8-.11,6.48-1.05,3.19-3.13,4.85-6.54,5.23-2.89.33-5.6-.43-5.86-.5l-16.6-5.68c-2.12-.73-4.44.41-5.16,2.53s.41,4.44,2.53,5.16l16.64,5.7s0,0,0,0c1.82.64,4.08,2.01,4.95,3.95.57,1.26.51,2.71-.19,4.43-.79,1.95-2.65,6.53-13.72,2.81,0,0,0,0,0,0l-12.19-4.17c-2.12-.73-4.44.41-5.16,2.53-.73,2.13.41,4.44,2.53,5.16l12.11,4.14c1.74.71,4.36,2.58,2.65,7.22-1.86,5.06-9.1,7.33-16.15,5.07-4.39-1.41-67.24-22.94-79.8-27.24-4-1.37-9.09-2.25-12.97-2.25h-6v-77.25h3.97c6.27,0,12.22-1.83,16.34-5.02,5.31-4.12,13.7-9.45,19.82-13.34,5.36-3.41,7.99-5.09,9.11-6.09,2.39-2.13,7.42-4.28,11.45-4.9,18.8-2.88,61.6-9.06,64.9-9.15h.04c1.22,0,2.08.34,2.79,1.09,1.52,1.63,2.02,4.86,1.85,7.16-.21,2.78-2.3,16.84-22.39,20.52-4.77.87-8.64,1.54-11.75,2.08-7.99,1.38-11.64,2.01-14.63,3.37-2.17.99-3.51,3.18-3.39,5.57.12,2.41,1.67,4.48,3.95,5.26,3.89,1.33,10.38,3.53,17.73,6.02,16.48,5.58,36.99,12.52,42.19,14.5,7.42,2.82,8.66,7.88,7.35,11.67ZM133.3,31.97l-50.72,117.08c-1.6-1-3.48-1.59-5.5-1.59h-.59L127.6,29.5s.01,0,.02,0l5.68,2.47Z" fill="#065f46"/>
  <circle cx="64.99" cy="236.38" r="7.7" fill="#065f46"/>
</svg>